<svg xmlns="http://www.w3.org/2000/svg" viewBox="0 0 496 496" xml:space="preserve">
  <path fill="#79c0ff" d="M305.834 409.842c-2.153 1.955-4.414 1.503-6.532 1.505q-48.246.038-96.49.002c-6.595-.005-8.103-1.555-8.116-8.382-.034-18.998-.09-37.997.056-56.993.028-3.607-.935-6.124-3.699-8.635-16.363-14.868-26.412-33.25-29.394-55.24-.666-4.917-2.243-7.798-7.747-6.754-.965.183-1.995.023-2.995.02-9.691-.038-11.465-2.006-10.085-11.617.351-2.45.808-5.086 2.016-7.174 5.623-9.724 6.906-20.738 9.631-31.307 3.327-12.9 6.912-25.726 11.513-38.218 2.414-6.556 1.4-13.156 1.625-19.76.086-2.519-1.692-2.92-3.717-2.915-4.333.01-8.67-.133-12.997.027-4.63.172-6.953-2.112-7.014-6.495a1241 1241 0 0 1-.032-30.495c.05-4.712 2.763-6.79 7.424-6.767 12.332.06 24.677-.327 36.99.163 5.814.232 8.96-1.881 11.87-6.69 11.197-18.495 24.832-35.02 41.207-49.244 10.96-9.52 11.907-9.558 22.88-.236 17.463 14.835 31.324 32.654 43.216 52.078 1.817 2.967 3.834 4.039 7.224 3.999 13.163-.156 26.33-.079 39.495-.045 6.503.017 8.085 1.527 8.124 7.857q.086 13.999 0 27.997c-.038 6.362-1.574 7.798-8.101 7.84-3.833.026-7.672.138-11.497-.035-3.23-.146-4.065 1.183-4.461 4.344-1.476 11.778 3.207 22.233 6.49 32.992 4.177 13.681 7.915 27.469 10.78 41.49.466 2.28 1.413 4.395 2.679 6.41 3.722 5.925 5.386 12.48 5.557 19.444.101 4.09-1.871 6.244-5.968 6.319-3.499.064-7.002.116-10.498.006-2.7-.085-3.724.98-4.052 3.736-2.747 23.052-12.36 42.7-29.755 58.245-3.177 2.84-4.239 5.842-4.196 10.002.192 18.663.096 37.328.063 55.993-.004 2.12.457 4.378-1.494 6.533M190.753 151.155c-16.086 34.233-26.845 70.162-34.112 107.2-1.09 5.557-.545 6.293 4.88 6.294q89.48.021 178.96 0c5.319 0 5.804-.642 4.81-5.803-6.467-33.608-15.952-66.306-29.658-97.71-13.913-31.879-31.428-61.35-57.447-85.065-7.39-6.735-7.327-6.67-14.721.138-22.807 20.995-39.12 46.552-52.712 74.946m3.965 174.624c25.168 24.874 63.217 30.422 94.08 14.23 28.41-14.906 42.88-49.255 40.43-64.418-.768-.071-1.58-.212-2.393-.212-49.96-.017-99.92.039-149.88-.113-5.51-.016-5.013 3.204-4.454 6.526 2.805 16.69 9.701 31.38 22.217 43.987m48.105 34.413c-12.83-1.397-24.98-5.08-36.8-11.614 0 16.684.007 32.624-.005 48.563-.003 3.381 2.247 3.518 4.768 3.516 26.987-.02 53.974-.059 80.961.044 3.655.014 5.009-1.207 4.972-4.917-.147-14.658-.061-29.319-.092-43.978-.002-.934.313-2.053-1.27-2.911-15.915 8.627-33.217 12.507-52.534 11.297m91.753-206.54c14.42.01 14.42.01 14.439-14.272.001-1.161-.032-2.322-.032-3.483 0-2.351-.968-3.816-3.508-3.817-10.079-.005-20.158-.002-31.003-.002 2.379 4.844 5.01 9.09 6.592 13.695 2.166 6.305 5.865 9.226 13.512 7.88m-178.434-.067c5.638.02 11.277.058 16.915.05 1.465-.002 3.333.386 4.11-1.124 3.285-6.386 6.375-12.872 10.115-20.504-7.192 0-12.946.003-18.7 0-15.657-.01-15.679-.01-15.313 15.832.047 2.034-.657 4.47 2.873 5.746"/>
  <path fill="#79c0ff" d="M214.373 170.292c32.778-22.363 68.462-11.646 91.146 17.258 4.028 5.133 7.376 10.693 9.51 16.913 3.882 11.313 1.252 19.926-8.297 27.254-7.363 5.652-15.755 9.25-24.396 12.393-29.573 10.756-57.27 5.703-83.671-9.955-2.408-1.428-4.6-3.325-6.622-5.283-6.72-6.508-8.895-14.124-5.646-23.194 5.318-14.843 15.168-26.036 27.976-35.386m-17.43 39.229c-1.482 7.084-.378 10.115 7.133 14.668 17.956 10.887 37.175 17.17 58.458 13.421 13.702-2.413 26.854-6.655 37.973-15.476 7.132-5.66 6.027-17.99-2.15-23.398-3.609 5.366-7.229 10.733-10.83 16.112-1.7 2.538-3.394 5.061-7.032 4.645-3.753-.428-4.523-3.473-5.499-6.317-1.742-5.075-3.462-10.159-5.627-16.518-3.695 5.552-6.729 9.695-9.33 14.095-6.85 11.59-11.347 11.665-18.026.216-2.644-4.531-5.829-8.746-9.526-14.23-2.368 6.991-4.16 12.807-6.315 18.484-1.977 5.209-7.05 5.85-10.486 1.48-1.127-1.434-2.02-3.052-3.049-4.567-3.121-4.593-6.258-9.176-9.66-14.16-3.243 3.624-4.535 7.197-6.033 11.545m25.708-31.352a48.3 48.3 0 0 0-10.12 8.051c-1.06 1.1-2.286 2.215-1.147 3.862 2.307 3.336 3.99 7.17 7.85 10.298 2.023-5.961 3.864-11.419 5.727-16.869.841-2.461 2.004-4.582 5.024-4.837 2.82-.238 4.766 1.033 6.218 3.323.89 1.404 1.823 2.782 2.76 4.156 3.79 5.558 7.59 11.11 12.008 17.57 5.032-7.413 9.375-13.827 13.736-20.228 1.68-2.468 3.15-5.205 6.888-4.818 4.012.415 4.681 3.614 5.84 6.572 1.895 4.836 2.72 10.112 5.597 14.783 2.689-2.205 3.823-5.094 5.775-7.32 2.631-3 2.193-5.225-.78-7.86-17.858-15.826-41.266-21.29-65.376-6.683"/>
</svg>
